<svg width="144" height="41" viewBox="0 0 144 41" fill="none" xmlns="http://www.w3.org/2000/svg">
<path d="M5.16699 27C4.29525 27 3.63086 26.89 3.17383 26.6699C2.72526 26.4499 2.42057 26.0902 2.25977 25.5908C2.10742 25.0915 2.03125 24.4271 2.03125 23.5977V12.1973C2.03125 11.3509 2.10742 10.6823 2.25977 10.1914C2.42057 9.69206 2.72526 9.33659 3.17383 9.125C3.63086 8.90495 4.29525 8.79492 5.16699 8.79492H8.6582C10.6895 8.79492 12.251 9.16732 13.3428 9.91211C14.4346 10.6569 14.9805 11.7064 14.9805 13.0605C14.9805 13.7292 14.8281 14.3385 14.5234 14.8887C14.2188 15.4388 13.8167 15.9085 13.3174 16.2979C12.8265 16.6872 12.2891 16.9792 11.7051 17.1738V17.2246C12.4499 17.3262 13.1227 17.5716 13.7236 17.9609C14.3245 18.3418 14.8027 18.8411 15.1582 19.459C15.5221 20.0684 15.7041 20.7708 15.7041 21.5664C15.7041 22.7513 15.4163 23.75 14.8408 24.5625C14.2738 25.3665 13.4867 25.9759 12.4795 26.3906C11.4808 26.7969 10.3298 27 9.02637 27H5.16699ZM6.13184 22.3916C6.13184 22.9587 6.2334 23.3649 6.43652 23.6104C6.63965 23.8558 7.02051 23.9785 7.5791 23.9785H8.54395C9.39876 23.9785 10.0843 23.7585 10.6006 23.3184C11.1253 22.8783 11.3877 22.2773 11.3877 21.5156C11.3877 20.7878 11.1338 20.2165 10.626 19.8018C10.1182 19.387 9.46224 19.1797 8.6582 19.1797H8.6709C8.46777 19.1797 8.31543 19.1501 8.21387 19.0908C7.99382 18.9469 7.7653 18.7819 7.52832 18.5957C7.2998 18.401 7.05013 18.1683 6.7793 17.8975C6.69466 17.7874 6.65234 17.707 6.65234 17.6562C6.65234 17.5885 6.69466 17.5081 6.7793 17.415C7.05013 17.1442 7.2998 16.9115 7.52832 16.7168C7.7653 16.5221 7.99382 16.3571 8.21387 16.2217C8.33236 16.1624 8.4847 16.1328 8.6709 16.1328H8.6582C9.15755 16.1328 9.61458 15.9466 10.0293 15.5742C10.4525 15.2018 10.6641 14.6178 10.6641 13.8223C10.6641 13.0182 10.4398 12.485 9.99121 12.2227C9.54264 11.9518 8.96712 11.8164 8.26465 11.8164H7.5791C7.02051 11.8164 6.63965 11.9349 6.43652 12.1719C6.2334 12.4089 6.13184 12.8151 6.13184 13.3906V22.3916ZM24.8193 27.3174C23.389 27.3174 22.1449 27.0889 21.0869 26.6318C20.029 26.1663 19.208 25.4469 18.624 24.4736C18.04 23.5003 17.748 22.2435 17.748 20.7031C17.748 18.3926 18.3405 16.6449 19.5254 15.46C20.7103 14.2751 22.2845 13.6826 24.248 13.6826C25.526 13.6826 26.6051 13.9111 27.4854 14.3682C28.374 14.8252 29.0469 15.4557 29.5039 16.2598C29.9694 17.0638 30.2021 17.9821 30.2021 19.0146C30.2021 20.0218 29.944 20.7243 29.4277 21.1221C28.9115 21.5199 28.1582 21.7188 27.168 21.7188H21.7217C21.7894 22.5905 22.1068 23.2549 22.6738 23.7119C23.2493 24.1689 24.028 24.3975 25.0098 24.3975C25.7884 24.3975 26.4105 24.2832 26.876 24.0547C27.3499 23.8177 27.68 23.6315 27.8662 23.4961C28.027 23.3776 28.209 23.3226 28.4121 23.3311C28.5729 23.3311 28.8014 23.3649 29.0977 23.4326C29.4023 23.4919 29.7028 23.6061 29.999 23.7754C30.2106 23.8854 30.3164 24.0378 30.3164 24.2324C30.3164 24.3424 30.2952 24.499 30.2529 24.7021C30.2275 24.8206 30.1852 24.9941 30.126 25.2227C30.0667 25.4427 29.9906 25.6501 29.8975 25.8447C29.8467 25.9378 29.7663 26.0267 29.6562 26.1113C29.487 26.2298 29.2119 26.3864 28.8311 26.5811C28.4587 26.7757 27.9466 26.945 27.2949 27.0889C26.6432 27.2412 25.818 27.3174 24.8193 27.3174ZM21.6963 19.1162H25.835C26.2666 19.1162 26.4824 18.9173 26.4824 18.5195C26.4824 17.9186 26.292 17.415 25.9111 17.0088C25.5387 16.5941 24.9759 16.3867 24.2227 16.3867C23.4017 16.3867 22.7965 16.6491 22.4072 17.1738C22.0264 17.6986 21.7894 18.346 21.6963 19.1162ZM36.6133 27.3174C35.7077 27.3174 34.9544 27.2412 34.3535 27.0889C33.7611 26.9365 33.2829 26.7546 32.9189 26.543C32.5635 26.3229 32.2842 26.124 32.0811 25.9463C31.9287 25.8024 31.9118 25.6416 32.0303 25.4639L33.3252 23.5469C33.5114 23.276 33.723 23.2591 33.96 23.4961C34.2054 23.7331 34.5355 23.9658 34.9502 24.1943C35.3734 24.4144 35.8981 24.5244 36.5244 24.5244C37.083 24.5244 37.54 24.4313 37.8955 24.2451C38.2594 24.0505 38.4414 23.7712 38.4414 23.4072C38.4414 23.1533 38.361 22.946 38.2002 22.7852C38.0394 22.6243 37.7559 22.4593 37.3496 22.29C36.9434 22.1208 36.3763 21.9049 35.6484 21.6426C34.5736 21.2533 33.7611 20.7835 33.2109 20.2334C32.6608 19.6833 32.3857 18.8792 32.3857 17.8213C32.3857 16.848 32.6523 16.0566 33.1855 15.4473C33.7272 14.8379 34.417 14.3936 35.2549 14.1143C36.1012 13.8265 36.9814 13.6826 37.8955 13.6826C39.055 13.6826 39.8675 13.7926 40.333 14.0127C40.807 14.2243 41.1117 14.3893 41.2471 14.5078C41.374 14.6178 41.4629 14.7448 41.5137 14.8887C41.6237 15.2188 41.7083 15.6546 41.7676 16.1963C41.8014 16.5094 41.721 16.7168 41.5264 16.8184C41.4248 16.8776 41.264 16.9411 41.0439 17.0088C40.8239 17.0765 40.6038 17.1357 40.3838 17.1865C40.1637 17.2373 39.9987 17.2627 39.8887 17.2627C39.8548 17.2627 39.8167 17.2542 39.7744 17.2373C39.7406 17.2119 39.6771 17.1569 39.584 17.0723C39.474 16.9622 39.2835 16.8353 39.0127 16.6914C38.7503 16.5475 38.3864 16.4756 37.9209 16.4756C37.4639 16.4756 37.0788 16.5518 36.7656 16.7041C36.4609 16.848 36.3086 17.1061 36.3086 17.4785C36.3086 17.8848 36.5033 18.1895 36.8926 18.3926C37.2904 18.5957 37.9421 18.8581 38.8477 19.1797C39.5586 19.4251 40.1764 19.696 40.7012 19.9922C41.2344 20.2799 41.6449 20.6608 41.9326 21.1348C42.2204 21.6003 42.3643 22.2308 42.3643 23.0264C42.3643 24.0589 42.0807 24.8926 41.5137 25.5273C40.9551 26.1536 40.2357 26.6107 39.3555 26.8984C38.4837 27.1777 37.5697 27.3174 36.6133 27.3174ZM49.4863 27.3174C46.6595 27.3174 45.2461 25.849 45.2461 22.9121V16.958H43.8115C43.5576 16.958 43.3799 16.9072 43.2783 16.8057C43.1852 16.6956 43.1387 16.5137 43.1387 16.2598V14.6982C43.1387 14.4443 43.1852 14.2666 43.2783 14.165C43.3799 14.055 43.5576 14 43.8115 14H45.2461V11.9561C45.2461 11.7529 45.2884 11.5964 45.373 11.4863C45.7285 11.0208 46.249 10.5173 46.9346 9.97559C47.0531 9.89095 47.1589 9.84863 47.252 9.84863C47.3535 9.84863 47.4551 9.89095 47.5566 9.97559C47.9206 10.2549 48.2253 10.5173 48.4707 10.7627C48.7246 11.0081 48.9404 11.2493 49.1182 11.4863C49.2028 11.5964 49.2451 11.7529 49.2451 11.9561V14H51.4922C51.7461 14 51.9196 14.055 52.0127 14.165C52.1143 14.2666 52.165 14.4443 52.165 14.6982V16.2598C52.165 16.5137 52.1143 16.6956 52.0127 16.8057C51.9196 16.9072 51.7461 16.958 51.4922 16.958H49.2451V22.2139C49.2451 23.568 49.736 24.2451 50.7178 24.2451C50.8701 24.2451 51.0098 24.2324 51.1367 24.207C51.2637 24.1732 51.3737 24.1393 51.4668 24.1055C51.6445 24.0378 51.7673 24.0124 51.835 24.0293C51.9111 24.0462 51.9788 24.1393 52.0381 24.3086L52.7744 26.2764C52.8506 26.488 52.7998 26.6403 52.6221 26.7334C52.4951 26.7926 52.1862 26.9027 51.6953 27.0635C51.2129 27.2327 50.4766 27.3174 49.4863 27.3174ZM79.917 27C79.0452 27 78.3809 26.89 77.9238 26.6699C77.4753 26.4499 77.1706 26.0902 77.0098 25.5908C76.8574 25.0915 76.7812 24.4271 76.7812 23.5977V12.1973C76.7812 11.3509 76.8574 10.6823 77.0098 10.1914C77.1706 9.69206 77.4753 9.33659 77.9238 9.125C78.3809 8.90495 79.0452 8.79492 79.917 8.79492H83.8145C85.6341 8.79492 87.2253 9.06576 88.5879 9.60742C89.959 10.1491 91.0254 11.0674 91.7871 12.3623C92.5488 13.6488 92.9297 15.4176 92.9297 17.6689C92.9297 19.9202 92.5488 21.7314 91.7871 23.1025C91.0254 24.4652 89.959 25.4554 88.5879 26.0732C87.2253 26.6911 85.6341 27 83.8145 27H79.917ZM82.3291 12.1338C81.7705 12.1338 81.3896 12.2523 81.1865 12.4893C80.9834 12.7262 80.8818 13.1325 80.8818 13.708V22.0869C80.8818 22.654 80.9834 23.0602 81.1865 23.3057C81.3896 23.5511 81.7705 23.6738 82.3291 23.6738H82.9131C84.7243 23.6738 86.125 23.2295 87.1152 22.3408C88.1139 21.4521 88.6133 19.9118 88.6133 17.7197C88.6133 16.2555 88.3848 15.1214 87.9277 14.3174C87.4792 13.5049 86.8275 12.9378 85.9727 12.6162C85.1178 12.2946 84.0895 12.1338 82.8877 12.1338H82.3291ZM102.159 27.3174C100.729 27.3174 99.4847 27.0889 98.4268 26.6318C97.3688 26.1663 96.5479 25.4469 95.9639 24.4736C95.3799 23.5003 95.0879 22.2435 95.0879 20.7031C95.0879 18.3926 95.6803 16.6449 96.8652 15.46C98.0501 14.2751 99.6243 13.6826 101.588 13.6826C102.866 13.6826 103.945 13.9111 104.825 14.3682C105.714 14.8252 106.387 15.4557 106.844 16.2598C107.309 17.0638 107.542 17.9821 107.542 19.0146C107.542 20.0218 107.284 20.7243 106.768 21.1221C106.251 21.5199 105.498 21.7188 104.508 21.7188H99.0615C99.1292 22.5905 99.4466 23.2549 100.014 23.7119C100.589 24.1689 101.368 24.3975 102.35 24.3975C103.128 24.3975 103.75 24.2832 104.216 24.0547C104.69 23.8177 105.02 23.6315 105.206 23.4961C105.367 23.3776 105.549 23.3226 105.752 23.3311C105.913 23.3311 106.141 23.3649 106.438 23.4326C106.742 23.4919 107.043 23.6061 107.339 23.7754C107.55 23.8854 107.656 24.0378 107.656 24.2324C107.656 24.3424 107.635 24.499 107.593 24.7021C107.567 24.8206 107.525 24.9941 107.466 25.2227C107.407 25.4427 107.33 25.6501 107.237 25.8447C107.187 25.9378 107.106 26.0267 106.996 26.1113C106.827 26.2298 106.552 26.3864 106.171 26.5811C105.799 26.7757 105.286 26.945 104.635 27.0889C103.983 27.2412 103.158 27.3174 102.159 27.3174ZM99.0361 19.1162H103.175C103.606 19.1162 103.822 18.9173 103.822 18.5195C103.822 17.9186 103.632 17.415 103.251 17.0088C102.879 16.5941 102.316 16.3867 101.562 16.3867C100.742 16.3867 100.136 16.6491 99.7471 17.1738C99.3662 17.6986 99.1292 18.346 99.0361 19.1162ZM113.699 27.3174C112.455 27.3174 111.465 26.9704 110.729 26.2764C110.001 25.5739 109.637 24.609 109.637 23.3818C109.637 22.7471 109.751 22.1589 109.979 21.6172C110.216 21.0671 110.623 20.5846 111.198 20.1699C111.782 19.7467 112.595 19.4082 113.636 19.1543C114.685 18.9004 116.022 18.7523 117.647 18.71C117.647 17.9398 117.453 17.3854 117.063 17.0469C116.683 16.7083 116.107 16.5391 115.337 16.5391C114.643 16.5391 114.076 16.6576 113.636 16.8945C113.196 17.1315 112.921 17.2923 112.811 17.377C112.692 17.4785 112.548 17.5166 112.379 17.4912C112.15 17.4574 111.905 17.3981 111.643 17.3135C111.389 17.2288 111.114 17.1315 110.817 17.0215C110.775 17.0046 110.729 16.9792 110.678 16.9453C110.627 16.903 110.597 16.8438 110.589 16.7676C110.589 16.7253 110.593 16.6745 110.602 16.6152C110.61 16.5475 110.631 16.429 110.665 16.2598C110.699 16.0905 110.75 15.8831 110.817 15.6377C110.885 15.3838 110.949 15.1891 111.008 15.0537C111.084 14.9098 111.211 14.7744 111.389 14.6475C111.533 14.529 111.968 14.3385 112.696 14.0762C113.424 13.8138 114.478 13.6826 115.857 13.6826C119.658 13.6826 121.558 15.5319 121.558 19.2305V26.416C121.558 26.5768 121.511 26.7165 121.418 26.835C121.333 26.945 121.185 27 120.974 27H119.069C118.934 27 118.811 26.9831 118.701 26.9492C118.6 26.9069 118.502 26.8307 118.409 26.7207L117.622 25.7051H117.533C117.144 26.2721 116.619 26.6826 115.959 26.9365C115.307 27.1904 114.554 27.3174 113.699 27.3174ZM115.096 24.3721C115.874 24.3721 116.463 24.1732 116.86 23.7754C117.258 23.3776 117.512 22.9671 117.622 22.5439V21.1348C116.446 21.1348 115.561 21.2279 114.969 21.4141C114.385 21.5918 113.995 21.8288 113.801 22.125C113.606 22.4128 113.509 22.7259 113.509 23.0645C113.509 23.5553 113.661 23.8981 113.966 24.0928C114.271 24.279 114.647 24.3721 115.096 24.3721ZM126.521 27.2666C126.344 27.3428 126.217 27.3809 126.141 27.3809C126.064 27.3809 125.984 27.3512 125.899 27.292C125.705 27.1566 125.48 26.8265 125.227 26.3018C124.981 25.7686 124.858 24.9518 124.858 23.8516V9.15039C124.858 8.94727 124.901 8.79069 124.985 8.68066C125.341 8.21517 125.861 7.71159 126.547 7.16992C126.665 7.08529 126.771 7.04297 126.864 7.04297C126.974 7.04297 127.08 7.08529 127.182 7.16992C127.546 7.44922 127.85 7.71159 128.096 7.95703C128.35 8.20247 128.565 8.44368 128.743 8.68066C128.828 8.79069 128.87 8.94727 128.87 9.15039V23.0771C128.87 23.6357 128.917 24.1139 129.01 24.5117C129.103 24.901 129.213 25.2142 129.34 25.4512C129.484 25.7305 129.429 25.9294 129.175 26.0479L126.521 27.2666ZM132.729 27C132.306 27 131.947 26.8857 131.65 26.6572C131.354 26.4202 131.193 26.1029 131.168 25.7051C131.151 25.2988 131.341 24.8418 131.739 24.334L137.49 16.958H132.628C132.476 16.958 132.357 16.9284 132.272 16.8691C131.925 16.5898 131.562 16.2048 131.181 15.7139C131.113 15.6038 131.079 15.5234 131.079 15.4727C131.079 15.4134 131.113 15.3372 131.181 15.2441C131.562 14.7533 131.925 14.3682 132.272 14.0889C132.374 14.0296 132.493 14 132.628 14H140.893C141.739 14 142.276 14.2751 142.505 14.8252C142.733 15.3669 142.585 15.9762 142.061 16.6533L136.398 24.042H141.616C141.769 24.042 141.887 24.0716 141.972 24.1309C142.319 24.4102 142.683 24.7952 143.063 25.2861C143.131 25.3962 143.165 25.4766 143.165 25.5273C143.165 25.5866 143.131 25.6628 143.063 25.7559C142.683 26.2467 142.319 26.6318 141.972 26.9111C141.87 26.9704 141.752 27 141.616 27H132.729Z" fill="white"/>
<path d="M60 19H69" stroke="white" stroke-width="3" stroke-linecap="round"/>
<path fill-rule="evenodd" clip-rule="evenodd" d="M87.4304 35.1847C81.0907 38.5976 71.8912 40.4381 63.9652 40.4649C52.8518 40.5025 42.8368 37.5586 35.2509 32.6317C34.655 32.2441 35.186 31.7116 35.9006 32.0125C44.0808 35.4279 54.1879 37.4651 64.6211 37.4298C71.6573 37.406 79.3941 36.3252 86.5039 34.1126C87.5779 33.7781 88.4799 34.616 87.4304 35.1847Z" fill="#FF7700"/>
<path fill-rule="evenodd" clip-rule="evenodd" d="M90.0642 32.986C89.2528 32.2374 84.6964 32.6491 82.6513 32.8318C82.0283 32.8891 81.9319 32.4964 82.4922 32.212C86.1159 30.349 92.0741 30.863 92.7707 31.4811C93.4674 32.1025 92.6067 36.4308 89.2025 38.5067C88.6803 38.8256 88.1801 38.6583 88.4119 38.2371C89.1732 36.8491 90.8801 33.738 90.0642 32.986Z" fill="#FF7700"/>
</svg>
